<?xml version="1.0" encoding="UTF-8" standalone="no"?>
<!-- Created with Inkscape (http://www.inkscape.org/) -->

<svg
   width="512"
   height="512"
   viewBox="0 0 135.46666 135.46667"
   version="1.1"
   id="svg5"
   inkscape:version="1.2.2 (b0a8486541, 2022-12-01)"
   sodipodi:docname="idea-logo.svg"
   xmlns:inkscape="http://www.inkscape.org/namespaces/inkscape"
   xmlns:sodipodi="http://sodipodi.sourceforge.net/DTD/sodipodi-0.dtd"
   xmlns="http://www.w3.org/2000/svg"
   xmlns:svg="http://www.w3.org/2000/svg">
  <sodipodi:namedview
     id="namedview7"
     pagecolor="#505050"
     bordercolor="#ffffff"
     borderopacity="1"
     inkscape:showpageshadow="0"
     inkscape:pageopacity="0"
     inkscape:pagecheckerboard="1"
     inkscape:deskcolor="#505050"
     inkscape:document-units="mm"
     showgrid="true"
     showguides="true"
     inkscape:lockguides="false"
     inkscape:zoom="1.28"
     inkscape:cx="483.20313"
     inkscape:cy="184.76563"
     inkscape:window-width="2478"
     inkscape:window-height="1403"
     inkscape:window-x="0"
     inkscape:window-y="0"
     inkscape:window-maximized="1"
     inkscape:current-layer="layer1">
    <sodipodi:guide
       position="0,120.65"
       orientation="0,1"
       id="guide2301"
       inkscape:locked="false"
       inkscape:label=""
       inkscape:color="rgb(0,134,229)" />
    <sodipodi:guide
       position="120.65,135.46666"
       orientation="-1,0"
       id="guide2303"
       inkscape:locked="false"
       inkscape:label=""
       inkscape:color="rgb(0,134,229)" />
    <sodipodi:guide
       position="0,14.816666"
       orientation="0,1"
       id="guide2305"
       inkscape:locked="false"
       inkscape:label=""
       inkscape:color="rgb(0,134,229)" />
    <sodipodi:guide
       position="14.816666,0"
       orientation="-1,0"
       id="guide2307"
       inkscape:locked="false"
       inkscape:label=""
       inkscape:color="rgb(0,134,229)" />
    <sodipodi:guide
       position="0,115.35833"
       orientation="0,1"
       id="guide2309"
       inkscape:locked="false"
       inkscape:label=""
       inkscape:color="rgb(0,134,229)" />
    <sodipodi:guide
       position="115.35833,135.46666"
       orientation="-1,0"
       id="guide2311"
       inkscape:locked="false"
       inkscape:label=""
       inkscape:color="rgb(0,134,229)" />
    <sodipodi:guide
       position="0,20.108333"
       orientation="0,1"
       id="guide2313"
       inkscape:locked="false"
       inkscape:label=""
       inkscape:color="rgb(0,134,229)" />
    <sodipodi:guide
       position="20.108333,135.46666"
       orientation="-1,0"
       id="guide2315"
       inkscape:locked="false"
       inkscape:label=""
       inkscape:color="rgb(0,134,229)" />
    <sodipodi:guide
       position="67.733332,135.46666"
       orientation="-1,0"
       id="guide2317"
       inkscape:locked="false"
       inkscape:label=""
       inkscape:color="rgb(0,134,229)" />
    <sodipodi:guide
       position="66.410416,135.46666"
       orientation="-1,0"
       id="guide2319"
       inkscape:locked="false"
       inkscape:label=""
       inkscape:color="rgb(0,134,229)" />
    <sodipodi:guide
       position="62.441666,135.46666"
       orientation="-1,0"
       id="guide2327"
       inkscape:locked="false"
       inkscape:label=""
       inkscape:color="rgb(0,134,229)" />
    <sodipodi:guide
       position="0,123.29583"
       orientation="0,1"
       id="guide2329"
       inkscape:locked="false"
       inkscape:label=""
       inkscape:color="rgb(0,134,229)" />
    <sodipodi:guide
       position="0,112.7125"
       orientation="0,1"
       id="guide2331"
       inkscape:locked="false"
       inkscape:label=""
       inkscape:color="rgb(0,134,229)" />
    <sodipodi:guide
       position="0,70.379166"
       orientation="0,1"
       id="guide2432"
       inkscape:locked="false"
       inkscape:label=""
       inkscape:color="rgb(0,134,229)" />
    <sodipodi:guide
       position="0,65.087499"
       orientation="0,1"
       id="guide2434"
       inkscape:locked="false"
       inkscape:label=""
       inkscape:color="rgb(0,134,229)" />
    <sodipodi:guide
       position="69.056252,135.46666"
       orientation="-1,0"
       id="guide2490"
       inkscape:locked="false"
       inkscape:label=""
       inkscape:color="rgb(0,134,229)" />
    <sodipodi:guide
       position="0,67.733332"
       orientation="0,1"
       id="guide2696"
       inkscape:locked="false"
       inkscape:label=""
       inkscape:color="rgb(0,134,229)" />
    <sodipodi:guide
       position="22.754166,135.46666"
       orientation="-1,0"
       id="guide2767"
       inkscape:locked="false"
       inkscape:label=""
       inkscape:color="rgb(0,134,229)" />
    <sodipodi:guide
       position="0,22.754166"
       orientation="0,1"
       id="guide2769"
       inkscape:locked="false"
       inkscape:label=""
       inkscape:color="rgb(0,134,229)" />
  </sodipodi:namedview>
  <defs
     id="defs2" />
  <g
     inkscape:label="Ebene 1"
     inkscape:groupmode="layer"
     id="layer1">
    <rect
       style="fill:#0b1728;stroke-width:0.264583"
       id="rect143"
       width="135.46666"
       height="135.46666"
       x="0"
       y="4.9999999e-06"
       rx="14.816667"
       ry="14.816667"
       sodipodi:insensitive="true" />
    <circle
       style="fill:#ffffff;stroke-width:0.264583"
       id="path2321"
       cx="67.73333"
       cy="17.4625"
       r="2.6458352" />
    <circle
       style="fill:#ffffff;stroke-width:0.264583"
       id="path2323"
       cx="67.73333"
       cy="118.00417"
       r="2.6458335" />
    <circle
       style="fill:#ffffff;stroke-width:0.264583"
       id="circle2325"
       cx="67.73333"
       cy="118.00417"
       r="2.6458335" />
    <circle
       style="fill:#ffffff;stroke-width:0.264583"
       id="circle2325-3"
       cx="54.071861"
       cy="67.733337"
       r="2.6458335" />
    <path
       id="path2362"
       style="fill:#ffffff;stroke-width:0.264583"
       d="M 63.045764 15.060579 A 52.916664 52.916664 0 0 0 14.816667 67.733333 A 52.916664 52.916664 0 0 0 63.007007 120.37818 A 5.2916651 5.2916651 0 0 1 62.441667 118.00417 A 5.2916651 5.2916651 0 0 1 63.324817 115.08083 A 47.486008 47.625 0 0 1 20.386353 67.733333 A 47.486008 47.625 0 0 1 63.310864 20.359998 A 5.2916651 5.2916651 0 0 1 62.441667 17.4625 A 5.2916651 5.2916651 0 0 1 63.045764 15.060579 z " />
    <path
       id="rect2492"
       style="fill:#ffffff;stroke-width:0.264583"
       d="M 66.410417 22.582601 L 66.410417 112.88407 A 5.2916651 5.2916651 0 0 1 67.733333 112.7125 A 5.2916651 5.2916651 0 0 1 69.05625 112.88097 L 69.05625 22.582601 A 5.2916651 5.2916651 0 0 1 67.733333 22.754167 A 5.2916651 5.2916651 0 0 1 66.410417 22.582601 z " />
    <path
       id="rect2492-7"
       style="fill:#ffffff;stroke-width:0.182088"
       d="M 22.804293 66.396464 A 44.979168 44.979168 0 0 0 22.754167 67.733333 A 44.979168 44.979168 0 0 0 22.803259 69.042297 L 48.947917 69.042297 A 5.2916651 5.2916651 0 0 1 48.779968 67.733333 A 5.2916651 5.2916651 0 0 1 48.955668 66.396464 L 22.804293 66.396464 z M 59.191736 66.396464 A 5.2916651 5.2916651 0 0 1 59.363302 67.733333 A 5.2916651 5.2916651 0 0 1 59.19587 69.042297 L 62.609615 69.042297 A 5.2916651 5.2916651 0 0 1 62.441667 67.733333 A 5.2916651 5.2916651 0 0 1 62.617367 66.396464 L 59.191736 66.396464 z " />
    <path
       id="rect2492-2"
       style="fill:#ffffff;stroke-width:0.25435"
       inkscape:transform-center-x="12.733929"
       inkscape:transform-center-y="47.179542"
       d="M 68.399882 4.3940284 L 68.399899 46.317207 A 5.2916651 5.2916651 0 0 1 71.045521 46.299527 L 71.045363 4.5095991 A 5.2916651 5.2916651 0 0 1 68.399882 4.3940284 z M 68.399823 56.543634 L 68.399426 90.416873 A 44.979168 44.979168 0 0 0 71.045423 91.241172 L 71.045216 56.557045 A 5.2916651 5.2916651 0 0 1 68.399823 56.543634 z "
       transform="rotate(15)" />
    <path
       id="rect2367"
       style="fill:#ffffff;stroke-width:0.264583"
       d="M 72.314449 14.816667 A 5.2916651 5.2916651 0 0 1 73.025 17.4625 A 5.2916651 5.2916651 0 0 1 72.302047 20.108333 L 119.32708 20.108333 C 120.05998 20.108333 120.65 19.518312 120.65 18.785417 L 120.65 16.139583 C 120.65 15.406688 120.05998 14.816667 119.32708 14.816667 L 72.314449 14.816667 z " />
    <path
       id="rect2369"
       style="fill:#ffffff;stroke-width:0.264583"
       d="M 72.314449 115.35833 A 5.2916651 5.2916651 0 0 1 73.025 118.00417 A 5.2916651 5.2916651 0 0 1 72.302047 120.65 L 119.32708 120.65 C 120.05998 120.65 120.65 120.05998 120.65 119.32708 L 120.65 116.68125 C 120.65 115.94835 120.05998 115.35833 119.32708 115.35833 L 72.314449 115.35833 z " />
    <rect
       style="fill:#ffffff;stroke-width:0.267149"
       id="rect2738"
       width="18.328606"
       height="5.291667"
       x="97.029724"
       y="65.087502"
       rx="1.3486998"
       ry="1.3229166" />
    <rect
       style="fill:#ffffff;stroke-width:0.267149"
       id="rect2738-4"
       width="18.328606"
       height="5.291667"
       x="73.024994"
       y="65.087509"
       rx="1.3486998"
       ry="1.3229166" />
  </g>
</svg>
